<svg xmlns="http://www.w3.org/2000/svg" viewBox="0 0 400 400" role="img" aria-label="Aureo — Compro Oro">
  <defs>
    <linearGradient id="bg" x1="0" y1="0" x2="1" y2="1"><stop offset="0" stop-color="#15110b"/><stop offset="1" stop-color="#0c0905"/></linearGradient>
    <linearGradient id="gF" x1="0" y1="0" x2="0" y2="1"><stop offset="0" stop-color="#fbe6b6"/><stop offset=".5" stop-color="#dcab43"/><stop offset="1" stop-color="#9c6f1f"/></linearGradient>
    <linearGradient id="gT" x1="0" y1="0" x2="1" y2="0"><stop offset="0" stop-color="#fff3cf"/><stop offset="1" stop-color="#e6c269"/></linearGradient>
    <linearGradient id="gS" x1="0" y1="0" x2="0" y2="1"><stop offset="0" stop-color="#caa24a"/><stop offset="1" stop-color="#7c581a"/></linearGradient>
    <radialGradient id="glow" cx=".5" cy=".42" r=".6"><stop offset="0" stop-color="#e8c372" stop-opacity=".28"/><stop offset="1" stop-color="#e8c372" stop-opacity="0"/></radialGradient>
  </defs>
  <rect width="400" height="400" fill="url(#bg)"/>
  <circle cx="200" cy="178" r="150" fill="url(#glow)"/>
  <!-- bottom bar -->
  <g>
    <polygon points="150,210 290,210 330,250 110,250" fill="url(#gT)"/>
    <polygon points="110,250 330,250 330,290 110,290" fill="url(#gF)"/>
    <polygon points="290,210 330,250 330,290 290,250" fill="url(#gS)"/>
  </g>
  <!-- middle bar -->
  <g>
    <polygon points="172,166 268,166 302,202 138,202" fill="url(#gT)"/>
    <polygon points="138,202 302,202 302,238 138,238" fill="url(#gF)"/>
    <polygon points="268,166 302,202 302,238 268,202" fill="url(#gS)"/>
    <text x="208" y="226" text-anchor="middle" font-family="Georgia, serif" font-size="12" letter-spacing="2" fill="#6e4f15">999.9</text>
  </g>
  <!-- top bar -->
  <g>
    <polygon points="196,126 244,126 272,160 168,160" fill="url(#gT)"/>
    <polygon points="168,160 272,160 272,194 168,194" fill="url(#gF)"/>
    <polygon points="244,126 272,160 272,194 244,160" fill="url(#gS)"/>
  </g>
  <text x="200" y="322" text-anchor="middle" font-family="'Playfair Display', Georgia, serif" font-size="40" font-weight="700" fill="#f4ecdd">Aureo</text>
  <text x="200" y="352" text-anchor="middle" font-family="Inter, system-ui, sans-serif" font-size="14" letter-spacing="5" fill="#e8c372">COMPRO ORO · TORINO</text>
</svg>
