<svg xmlns="http://www.w3.org/2000/svg" viewBox="0 0 400 400" role="img" aria-label="Cronos — Laboratorio orologiaio">
  <defs>
    <linearGradient id="bg" x1="0" y1="0" x2="1" y2="1"><stop offset="0" stop-color="#11161d"/><stop offset="1" stop-color="#0a0e12"/></linearGradient>
    <radialGradient id="case" cx=".4" cy=".35" r=".75"><stop offset="0" stop-color="#e6c896"/><stop offset=".5" stop-color="#c8a06a"/><stop offset="1" stop-color="#7c5f34"/></radialGradient>
    <radialGradient id="dial" cx=".4" cy=".35" r=".9"><stop offset="0" stop-color="#1d242e"/><stop offset="1" stop-color="#0c1015"/></radialGradient>
    <radialGradient id="glow" cx=".5" cy=".45" r=".55"><stop offset="0" stop-color="#c8a06a" stop-opacity=".26"/><stop offset="1" stop-color="#c8a06a" stop-opacity="0"/></radialGradient>
  </defs>
  <rect width="400" height="400" fill="url(#bg)"/>
  <circle cx="200" cy="172" r="150" fill="url(#glow)"/>
  <g transform="translate(200 172)">
    <circle r="112" fill="url(#case)"/>
    <circle r="100" fill="#11161d"/>
    <circle r="96" fill="url(#dial)" stroke="#2a333f" stroke-width="2"/>
    <circle r="86" fill="none" stroke="#4a5663" stroke-width="4" stroke-dasharray="1 8.0"/>
    <g fill="#c8a06a"><rect x="-3" y="-90" width="6" height="13" rx="2"/><rect x="-3" y="-90" width="6" height="13" rx="2" transform="rotate(90)"/><rect x="-3" y="-90" width="6" height="13" rx="2" transform="rotate(180)"/><rect x="-3" y="-90" width="6" height="13" rx="2" transform="rotate(270)"/></g>
    <g fill="#7d8a99"><rect x="-2" y="-90" width="4" height="9" transform="rotate(30)"/><rect x="-2" y="-90" width="4" height="9" transform="rotate(60)"/><rect x="-2" y="-90" width="4" height="9" transform="rotate(120)"/><rect x="-2" y="-90" width="4" height="9" transform="rotate(150)"/><rect x="-2" y="-90" width="4" height="9" transform="rotate(210)"/><rect x="-2" y="-90" width="4" height="9" transform="rotate(240)"/><rect x="-2" y="-90" width="4" height="9" transform="rotate(300)"/><rect x="-2" y="-90" width="4" height="9" transform="rotate(330)"/></g>
    <text y="-34" text-anchor="middle" fill="#c8a06a" font-family="'Space Grotesk', sans-serif" font-size="11" font-weight="600" letter-spacing="2">CRONOS</text>
    <rect x="-7" y="56" width="32" height="3" fill="none"/>
    <g transform="rotate(38)"><rect x="-5" y="-58" width="9" height="62" rx="4" fill="#e7edf3"/></g>
    <g transform="rotate(128)"><rect x="-3" y="-82" width="5.5" height="86" rx="3" fill="#cfd8e2"/></g>
    <circle r="6" fill="#c8a06a"/>
  </g>
  <text x="200" y="330" text-anchor="middle" font-family="'Space Grotesk', system-ui, sans-serif" font-size="40" font-weight="600" letter-spacing="3" fill="#e7edf3">CRONOS</text>
  <text x="200" y="357" text-anchor="middle" font-family="Inter, system-ui, sans-serif" font-size="13" letter-spacing="4" fill="#c8a06a">OROLOGERIA · TORINO</text>
</svg>
