<svg xmlns="http://www.w3.org/2000/svg" width="1200" height="630" viewBox="0 0 1200 630" font-family="'Space Grotesk', sans-serif">
  <defs>
    <linearGradient id="g" x1="0" y1="0" x2="1" y2="1">
      <stop offset="0" stop-color="#7c5cff"/>
      <stop offset="0.55" stop-color="#22d3ee"/>
      <stop offset="1" stop-color="#ff6b88"/>
    </linearGradient>
    <radialGradient id="b1" cx="0.2" cy="0.1" r="0.6">
      <stop offset="0" stop-color="#7c5cff" stop-opacity="0.55"/>
      <stop offset="1" stop-color="#7c5cff" stop-opacity="0"/>
    </radialGradient>
    <radialGradient id="b2" cx="0.9" cy="0.9" r="0.6">
      <stop offset="0" stop-color="#22d3ee" stop-opacity="0.45"/>
      <stop offset="1" stop-color="#22d3ee" stop-opacity="0"/>
    </radialGradient>
  </defs>

  <rect width="1200" height="630" fill="#07070c"/>
  <rect width="1200" height="630" fill="url(#b1)"/>
  <rect width="1200" height="630" fill="url(#b2)"/>

  <!-- brand -->
  <g transform="translate(80,78) scale(2.2)">
    <rect width="24" height="24" rx="6" fill="url(#g)"/>
    <g fill="#fff">
      <path d="M12 3.2l.55 5.6h-1.1z"/>
      <path d="M11.6 8.8C9.8 9.9 9.3 11.6 10.2 12.9h3.6c.9-1.3.4-3-1.4-4.1z"/>
      <rect x="10.2" y="12.6" width="3.6" height="4.9"/>
      <path d="M8 17.3h8l.45 2.3H7.55z"/>
    </g>
  </g>
  <text x="150" y="120" font-size="44" font-weight="700" fill="#f3f3fb">Mole <tspan fill="url(#g)">Digitale</tspan></text>

  <!-- headline -->
  <text x="80" y="300" font-size="96" font-weight="700" fill="#f3f3fb">Il tuo sito,</text>
  <text x="80" y="410" font-size="96" font-weight="700" fill="url(#g)">rifatto come si deve.</text>

  <!-- sub -->
  <text x="82" y="500" font-size="36" font-weight="500" fill="#a4a4c0" font-family="'Inter', sans-serif">Siti web moderni per esercenti · Torino e provincia · a costo ridotto</text>

  <!-- tag -->
  <rect x="80" y="540" width="300" height="56" rx="28" fill="rgba(255,255,255,0.06)" stroke="rgba(255,255,255,0.12)"/>
  <text x="110" y="577" font-size="26" font-weight="600" fill="#22d3ee" font-family="'Inter', sans-serif">📞 Preventivo gratis in 24h</text>
</svg>
